<svg width="134" height="20" viewBox="0 0 134 20" fill="none" xmlns="http://www.w3.org/2000/svg">
<path d="M80.3808 0.98877L83.6134 0.999483L89.6029 1.01014L68.461 19.438H59.2822L80.3808 0.98877Z" fill="#303030"/>
<path d="M109.531 0.98877L112.764 0.999483L118.753 1.01014L97.6114 19.438H88.4326L109.531 0.98877Z" fill="#303030"/>
<path d="M51.2304 0.98877L54.463 0.999483L60.4525 1.01014L39.3106 19.438H30.1318L51.2304 0.98877Z" fill="#303030"/>
<path d="M22.079 0.990234L25.3116 1.00095L31.3012 1.0116L10.1593 19.4395H0.980469L22.079 0.990234Z" fill="#303030"/>
<path d="M94.954 0.98877L98.1866 0.999483L104.176 1.01014L83.0343 19.438H73.8555L94.954 0.98877Z" fill="#303030"/>
<path d="M124.104 0.98877L127.337 0.999483L133.327 1.01014L112.185 19.438H103.006L124.104 0.98877Z" fill="#303030"/>
<path d="M53.6995 18.938H46.0394L65.9936 1.48939L69.0375 1.49948L69.0383 1.49948L73.6968 1.50777L53.6995 18.938Z" fill="#303030" stroke="#303030"/>
<path d="M36.6571 0.98877L39.8897 0.999483L45.8793 1.01014L24.7374 19.438H15.5586L36.6571 0.98877Z" fill="#303030"/>
</svg>
