<svg width="1440" height="1024" viewBox="0 0 1440 1024" fill="none" xmlns="http://www.w3.org/2000/svg">
<rect width="1440" height="1024" fill="white"/>
<path d="M813.07 851V816.406H813.632L822.984 831.453V851H813.07ZM813.07 808.25V801.781H821.155L844.359 839.188V851H839.648L813.07 808.25ZM834.445 815.984V801.781H844.359V831.031H843.796L834.445 815.984ZM878.784 837.289V814.156C878.784 811.672 879.838 809.141 881.948 806.562C884.76 803.188 888.323 801.477 892.635 801.43V811.344C890.713 811.391 889.448 812.469 888.838 814.578C888.745 814.906 888.698 815.141 888.698 815.281V837.289C888.698 839.211 889.752 840.523 891.862 841.227C892.19 841.32 892.424 841.367 892.565 841.367V851.352C889.893 851.352 887.221 850.391 884.549 848.469C880.752 845.656 878.83 841.93 878.784 837.289ZM896.432 851.352V841.367C897.182 841.367 898.026 840.969 898.963 840.172C899.854 839.375 900.323 838.414 900.37 837.289V815.281C900.37 814.438 899.971 813.547 899.174 812.609C898.424 811.812 897.51 811.391 896.432 811.344V801.43C901.166 801.43 904.963 803.469 907.823 807.547C909.463 809.891 910.284 812.094 910.284 814.156V837.289C910.284 842.492 907.963 846.477 903.323 849.242C900.885 850.648 898.588 851.352 896.432 851.352ZM942.81 811.484V801.781H973.255V811.484H962.99V851H953.076V811.484H942.81ZM1051.04 850.93V801.781H1076.63V811.625H1060.95V821.609H1070.02V831.523H1060.95V850.93H1051.04ZM1109.93 837.289V814.156C1109.93 811.672 1110.98 809.141 1113.09 806.562C1115.91 803.188 1119.47 801.477 1123.78 801.43V811.344C1121.86 811.391 1120.59 812.469 1119.98 814.578C1119.89 814.906 1119.84 815.141 1119.84 815.281V837.289C1119.84 839.211 1120.9 840.523 1123.01 841.227C1123.34 841.32 1123.57 841.367 1123.71 841.367V851.352C1121.04 851.352 1118.37 850.391 1115.69 848.469C1111.9 845.656 1109.98 841.93 1109.93 837.289ZM1127.58 851.352V841.367C1128.33 841.367 1129.17 840.969 1130.11 840.172C1131 839.375 1131.47 838.414 1131.51 837.289V815.281C1131.51 814.438 1131.12 813.547 1130.32 812.609C1129.57 811.812 1128.66 811.391 1127.58 811.344V801.43C1132.31 801.43 1136.11 803.469 1138.97 807.547C1140.61 809.891 1141.43 812.094 1141.43 814.156V837.289C1141.43 842.492 1139.11 846.477 1134.47 849.242C1132.03 850.648 1129.73 851.352 1127.58 851.352ZM1175.15 837.43V801.781H1185.06V837.43C1185.11 839.352 1186.19 840.617 1188.3 841.227C1188.63 841.32 1188.86 841.367 1189 841.367V851.352C1186.28 851.352 1183.56 850.391 1180.85 848.469C1177.1 845.703 1175.2 842.023 1175.15 837.43ZM1192.8 851.352V841.367C1193.64 841.367 1194.53 840.969 1195.47 840.172C1196.27 839.422 1196.69 838.508 1196.74 837.43V801.781H1206.58V837.43C1206.58 842.727 1204.24 846.688 1199.55 849.312C1197.21 850.672 1194.96 851.352 1192.8 851.352ZM1240.65 851V816.406H1241.22L1250.57 831.453V851H1240.65ZM1240.65 808.25V801.781H1248.74L1271.94 839.188V851H1267.23L1240.65 808.25ZM1262.03 815.984V801.781H1271.94V831.031H1271.38L1262.03 815.984ZM1306.65 851V801.781H1316.56V851H1306.65ZM1320.36 851V841.086C1321.39 841.086 1322.35 840.664 1323.24 839.82C1323.9 839.07 1324.25 838.18 1324.3 837.148V815.633C1324.3 814.695 1323.9 813.781 1323.1 812.891C1322.35 812.141 1321.44 811.742 1320.36 811.695V801.781C1325.56 801.781 1329.5 804.102 1332.17 808.742C1333.53 811.133 1334.21 813.43 1334.21 815.633V837.148C1334.21 842.492 1331.84 846.477 1327.11 849.102C1324.77 850.367 1322.52 851 1320.36 851Z" fill="black"/>
<path d="M1016.08 666.031V647.75L1042.8 601.906V637.344L1036.33 647.75H1042.8V666.031H1016.08ZM1050.81 686V587.422H1070.5V647.75H1078.1V666.031H1070.5V686H1050.81ZM1171.13 686C1157.73 686 1149.29 676.672 1145.82 658.016C1144.7 651.828 1144.13 644.75 1144.13 636.781C1144.13 606.781 1151.77 590.469 1167.05 587.844C1168.37 587.656 1169.73 587.562 1171.13 587.562V606.406C1166.35 607.531 1163.73 614.328 1163.26 626.797C1163.16 628.953 1163.12 631.766 1163.12 635.234V638.328C1163.12 651.266 1164.24 659.609 1166.49 663.359C1167.71 665.422 1169.26 666.688 1171.13 667.156V686ZM1178.87 686V667.156C1183.65 666.031 1186.27 659.234 1186.74 646.766C1186.84 644.609 1186.88 641.797 1186.88 638.328V635.234C1186.88 622.297 1185.76 613.953 1183.51 610.203C1182.29 608.141 1180.74 606.875 1178.87 606.406V587.562C1192.27 587.562 1200.71 596.891 1204.18 615.547C1205.3 621.734 1205.87 628.812 1205.87 636.781C1205.87 666.781 1198.23 683.094 1182.95 685.719C1181.63 685.906 1180.27 686 1178.87 686ZM1270.5 666.031V647.75L1297.22 601.906V637.344L1290.75 647.75H1297.22V666.031H1270.5ZM1305.23 686V587.422H1324.92V647.75H1332.51V666.031H1324.92V686H1305.23Z" fill="black"/>
<g filter="url(#filter0_dd)">
<path d="M119.906 272L119.906 203.641H133.676L133.676 230.887H137.484V244.363H133.676V272H119.906ZM142.855 244.363V230.887H146.664L146.664 203.641H160.434L160.434 272H146.664V244.363H142.855ZM208.441 272L208.441 203.641L222.211 203.641L222.211 272L208.441 272ZM270.414 272V203.641H284.184V272H270.414ZM289.457 244.07V231.863H290.727C294.893 231.863 297.562 230.171 298.734 226.785C298.995 225.939 299.125 225.06 299.125 224.148C299.125 220.698 297.497 218.387 294.242 217.215C293.201 216.824 292.029 216.629 290.727 216.629H289.457V203.641H291.605C300.134 203.771 306.124 206.798 309.574 212.723C311.202 215.522 312.016 218.68 312.016 222.195C311.951 228.901 309.737 234.044 305.375 237.625C308.63 239.708 310.714 243.484 311.625 248.953C311.69 249.604 311.755 250.223 311.82 250.809L313.48 272H300.785L299.32 254.617C298.799 249.409 297.302 246.186 294.828 244.949C293.656 244.428 292.224 244.135 290.531 244.07H289.457ZM356.801 203.641L371.156 203.641L383.852 247.293V272H369.594V247.391L356.801 203.641ZM380.531 216.824L384.34 203.641H398.5L387.855 239.676H386.977L380.531 216.824ZM442.797 253.152L442.797 203.641H456.566L456.566 253.152C456.632 255.822 458.129 257.579 461.059 258.426C461.514 258.556 461.84 258.621 462.035 258.621V272.488C458.259 272.488 454.483 271.154 450.707 268.484C445.499 264.643 442.862 259.533 442.797 253.152ZM467.309 272.488V258.621C468.48 258.621 469.717 258.068 471.02 256.961C472.126 255.919 472.712 254.65 472.777 253.152L472.777 203.641H486.449L486.449 253.152C486.449 260.509 483.194 266.01 476.684 269.656C473.428 271.544 470.303 272.488 467.309 272.488ZM531.625 256.57L544.027 252.176C544.027 253.803 544.483 255.236 545.395 256.473C546.306 257.71 547.217 258.523 548.129 258.914L549.496 259.598V272.293C543.962 272.293 539.242 269.884 535.336 265.066C532.927 262.007 531.69 259.174 531.625 256.57ZM532.406 222.391C532.406 215.229 535.466 209.858 541.586 206.277C544.385 204.585 547.022 203.706 549.496 203.641V216.531C547.868 216.987 546.664 218.159 545.883 220.047C545.622 220.633 545.492 221.251 545.492 221.902C545.492 224.572 547.478 226.85 551.449 228.738C552.296 229.129 553.663 229.715 555.551 230.496C558.676 231.733 560.889 232.742 562.191 233.523C567.465 236.648 570.98 239.839 572.738 243.094C574.04 245.633 574.691 248.465 574.691 251.59C574.691 257.514 572.445 262.592 567.953 266.824C564.112 270.47 559.75 272.293 554.867 272.293V259.598C557.406 259.272 559.197 257.937 560.238 255.594C560.694 254.552 560.922 253.413 560.922 252.176C560.922 248.855 558.448 246.121 553.5 243.973C552.589 243.582 551.156 243.029 549.203 242.312C546.924 241.531 545.329 240.913 544.418 240.457C538.819 237.788 535.238 234.337 533.676 230.105C532.829 227.827 532.406 225.255 532.406 222.391ZM554.867 216.531V203.641C560.336 203.641 564.926 205.952 568.637 210.574C570.785 213.309 571.892 215.783 571.957 217.996L559.262 222.195C559.262 219.461 557.927 217.605 555.258 216.629C554.997 216.564 554.867 216.531 554.867 216.531ZM619.77 272L632.367 215.164H633.832L639.691 242.508L633.246 272H619.77ZM640.57 263.699L643.5 250.223H647.016L636.664 203.641H650.238L666.352 272H652.68L650.727 263.699H640.57ZM712.309 272V203.641H726.078V272H712.309ZM119.711 402.957L119.711 370.828C119.711 367.378 121.176 363.862 124.105 360.281C128.012 355.594 132.96 353.217 138.949 353.152L138.949 366.922C136.28 366.987 134.522 368.484 133.676 371.414C133.546 371.87 133.48 372.195 133.48 372.391V402.957C133.48 405.626 134.945 407.449 137.875 408.426C138.331 408.556 138.656 408.621 138.852 408.621V422.488C135.141 422.488 131.43 421.154 127.719 418.484C122.445 414.578 119.776 409.402 119.711 402.957ZM144.223 422.488V408.621C145.264 408.621 146.436 408.068 147.738 406.961C148.975 405.854 149.626 404.52 149.691 402.957V372.391C149.691 371.219 149.138 369.982 148.031 368.68C146.99 367.573 145.72 366.987 144.223 366.922L144.223 353.152C150.798 353.152 156.072 355.984 160.043 361.648C162.322 364.904 163.461 367.964 163.461 370.828V402.957C163.461 410.184 160.238 415.717 153.793 419.559C150.408 421.512 147.217 422.488 144.223 422.488ZM211.273 422L211.273 373.953H212.055L225.043 394.852L225.043 422H211.273ZM211.273 362.625V353.641H222.504L254.73 405.594V422H248.188L211.273 362.625ZM240.961 373.367L240.961 353.641H254.73L254.73 394.266H253.949L240.961 373.367ZM302.934 422L302.934 353.641H316.703L316.703 408.328H339.652V422H302.934ZM385.219 422L385.219 353.641H398.988L398.988 422H385.219ZM447.191 422L447.191 373.953H447.973L460.961 394.852V422H447.191ZM447.191 362.625V353.641H458.422L490.648 405.594V422H484.105L447.191 362.625ZM476.879 373.367V353.641H490.648L490.648 394.266H489.867L476.879 373.367ZM538.852 422L538.852 353.641H574.398V367.312H552.621V381.18H565.219L565.219 394.949H552.621V408.23H574.398V422H538.852Z" fill="black"/>
</g>
<path d="M121.203 739.998C126.203 737.331 135.103 741.098 130.703 777.498C122.203 769.498 108.403 750.798 121.203 739.998ZM121.203 739.998C116.536 694.665 145.403 630.898 298.203 738.498M276.203 677.998C274.703 706.498 288.203 743.498 323.703 750.998C309.536 747.498 279.503 738.798 272.703 731.998L271.203 735.498L268.203 736.498L270.203 742.998C268.87 743.831 266.403 745.698 267.203 746.498C268.139 747.433 303.221 776.824 334.763 771.998M341.203 770.498C339.081 771.173 336.931 771.666 334.763 771.998M334.763 771.998C368.203 799.998 400.203 883.497 311.703 865.997M311.703 865.997C310.37 852.331 300.403 827.298 271.203 836.498C267.703 846.331 270.903 865.997 311.703 865.997ZM311.703 865.997C339.764 889.382 389.203 890.497 429.703 872.084M455.703 742.998C447.703 742.998 378.386 766.88 412.203 798.498C473.703 855.998 431.37 861.555 429.703 872.084M455.703 742.998C456.88 742.791 458.22 742.536 459.703 742.234M455.703 742.998C462.283 750.815 467.566 758.273 471.703 765.381M429.703 872.084C443.352 865.879 457.398 857.088 467.785 845.5M361.203 707.498L383.203 720.998C383.536 722.331 385.103 724.198 388.703 720.998C392.303 717.798 401.536 708.664 405.703 704.498C406.536 703.498 409.503 701.798 414.703 702.998C419.903 704.198 429.536 712.498 433.703 716.498C434.37 717.831 436.603 719.698 440.203 716.498C443.803 713.298 449.036 709.164 451.203 707.498C451.87 705.998 454.103 703.698 457.703 706.498C461.303 709.298 471.87 717.998 476.703 721.998C477.036 722.664 478.403 723.398 481.203 720.998C484.003 718.598 493.37 710.998 497.703 707.498C499.87 706.164 504.903 704.298 507.703 707.498C509.809 709.905 516.952 714.538 522.703 718.034M522.703 718.034C524.597 719.185 526.34 720.213 527.703 720.998C527.703 718.768 527.61 716.253 527.41 713.5M522.703 718.034L521.203 720.998C500.578 732.215 473.762 739.367 459.703 742.234M499.469 632.5C509.214 641 537.203 654.9 571.203 642.5C567.851 654.333 552.704 676.8 518.926 672M499.469 632.5C508.234 644.904 514.533 658.713 518.926 672M499.469 632.5C498.515 631.149 497.531 629.815 496.518 628.5M518.926 672C524.078 687.586 526.606 702.456 527.41 713.5M496.518 628.5C489.566 619.481 481.205 611.362 471.203 604.946M496.518 628.5C497.876 619.484 500.153 605.263 502.409 593M471.203 604.946C445.428 588.412 408.753 583.186 357.203 602.998L355.542 604.5M471.203 604.946C484.536 590.798 510.503 564 507.703 570C506.388 572.818 504.406 582.142 502.409 593M328.203 583C328.87 583.5 331.703 583.4 337.703 579M329.703 599.5C332.203 600 338.803 599.4 345.203 593M333.203 620.5C335.87 620.5 344.203 618.6 356.203 611M355.542 604.5C344.028 583.341 327.245 562.747 319.203 554C321.857 561.63 324.465 593.399 325.943 616M355.542 604.5C357.63 608.337 359.545 612.193 361.203 616C356.803 629.144 336.37 629.81 326.703 628.5C326.504 624.915 326.248 620.652 325.943 616M315.203 631.5C310.666 634.834 304.04 636.945 296.203 638.148M296.203 638.148C270.187 642.139 230.825 636.111 210.203 631.5C216.203 652 272.703 690.5 300.703 675M296.203 638.148C301.03 632.432 313.735 620 325.943 616M494.203 585C494.84 587.167 497.373 591.8 502.409 593M485.203 597L493.203 606M504.203 672L494.703 676.5C493.114 676.833 490.89 678.1 494.703 680.5C498.516 682.9 502.625 685.167 504.203 686M394.203 672.5V681.5M394.203 672.5L395.102 673.5M394.203 672.5L393.652 673M394.203 681.5L392 679.5V674.5L393.102 673.5M394.203 681.5L395.102 680.75M479.703 827C488.036 822.333 506.503 815 513.703 823C498.103 847.8 476.591 848.333 467.785 845.5M479.703 827C476.855 833.818 472.735 839.977 467.785 845.5M479.703 827C486.617 810.451 486.045 790.022 471.703 765.381M459.703 742.234C462.203 741.707 494.203 757.002 513.703 754L512.203 759.5L513.703 762.5V766V768C503.703 769.088 481.303 770.086 471.703 765.381M428.203 793C429.703 791.5 444.703 776.502 452.203 773.5M444.203 803.5C447.37 800 455.803 792.3 464.203 789.5M454.703 824.5C456.091 822.5 460.65 818 467.785 816M414.703 854.5C408.703 847.667 397.903 831.3 402.703 820.5C407.503 809.7 422.703 832.667 429.703 845.5M527.41 713.5C575.703 695.5 603.203 576 675.203 636M675.203 636C679.703 632 690.803 631.4 699.203 661C683.203 656.2 676.536 642.333 675.203 636ZM395.102 673.5L396 674.5V680L395.102 680.75M395.102 673.5V680.75M393.102 673.5V680.75L393.652 673M393.102 673.5L393.652 673M393.652 680.75L392.5 676.5V674.5V679.5M647.203 632.5C652.87 637 660.503 650.9 645.703 670.5C630.903 645.7 640.536 634.833 647.203 632.5ZM602.703 657.5C600.536 663.833 601.403 679.7 622.203 692.5C617.803 658.9 607.37 655.167 602.703 657.5ZM580.203 685.5C585.703 683.022 597.903 686.061 602.703 718.034C585.103 706.861 580.37 691.689 580.203 685.5ZM542.703 719C548.87 718.333 560.203 724.8 556.203 756C541.003 742.8 540.87 725.833 542.703 719ZM253.703 726.5C249.536 726 241.503 730.8 242.703 754C259.503 743.2 257.036 731.167 253.703 726.5ZM205.703 739.998C212.703 734.979 224.603 721.152 216.203 706C210.036 708.499 199.303 718.796 205.703 739.998ZM177.203 730.5C183.036 726.167 191.203 713 177.203 695C171.87 699 164.403 711.7 177.203 730.5ZM135.203 709.5C140.703 708.665 152.703 712.696 156.703 735.498C131.103 720.696 131.703 711.998 135.203 709.5Z" stroke="black"/>
<path d="M1076.46 227.577L1075.72 226.446C1069.43 204.2 1072.76 198.167 1067.59 179.691C1069.8 175.166 1074.39 180.143 1095.67 206.085H1096.78M1076.46 227.577C1079.54 223.053 1087.91 212.42 1096.78 206.085M1076.46 227.577C1050.74 244.771 1028.42 238.533 1015.48 236.271C1014 236.522 1011.64 238.081 1014 242.304C1016.96 247.583 1031.3 264.551 1054.8 265.305M1076.46 227.577C1065.72 240.152 1058.94 253.408 1054.8 265.305M1096.78 206.085C1106.39 200.073 1106.02 196.529 1126.71 195.925C1174.75 193.286 1188.42 205.352 1190.64 204.598H1192.12M1192.12 204.598C1198.4 193.16 1212.37 170.059 1217.99 169.154C1218.73 168.777 1220.93 168.859 1220.57 172.17C1219.89 178.462 1218.25 184.43 1216.25 215.91M1192.12 204.598L1185.47 215.91C1191.38 222.848 1199.76 224.582 1203.2 224.582H1213.92L1215.77 223.828C1215.93 221.022 1216.09 218.387 1216.25 215.91M1216.25 215.91C1221.88 217.795 1234.17 223.602 1238.31 231.746L1239.42 233.293M1226.49 229.107C1229.73 230.59 1233.82 232.177 1239.42 233.293M1239.42 233.293C1252.33 235.864 1273.26 235.934 1310.37 226.467C1311.6 227.347 1313.74 230.66 1310.37 235.517C1302.12 247.421 1283.13 262.679 1258.63 266.141M1235.35 265.682C1243.51 267.156 1251.32 267.174 1258.63 266.141M1258.63 266.141C1257.16 283.027 1256.27 302.483 1232.03 326.012C1231.69 326.249 1231.32 326.506 1230.92 326.778M1214.66 334.678C1213.75 334.888 1212.88 335.022 1212.07 335.061L1214.66 334.678ZM1214.66 334.678C1222.42 358.439 1219.83 364.849 1234.98 378.8L1227.22 382.948C1219.46 375.784 1203.57 358.816 1203.57 353.537C1185.1 365.226 1174.01 410.851 1187.68 418.769L1189.53 419.9C1201.36 424.425 1195.44 425.933 1225.01 426.687M1214.66 334.678C1220.14 333.414 1227.04 329.393 1230.92 326.778M1225.01 426.687C1222.42 416.884 1227.22 411.605 1230.92 405.195C1234.62 398.785 1256.42 399.991 1251.98 416.884C1247.82 432.742 1234 430.789 1226.41 427.37M1225.01 426.687C1225.44 426.918 1225.91 427.147 1226.41 427.37M1226.41 427.37C1219.29 432.924 1199.36 443.957 1176.6 443.655C1153.84 443.353 1131.88 434.229 1123.76 426.687M1123.76 426.687C1109.71 387.096 1140.75 381.817 1147.77 363.718C1151.91 358.59 1149.5 348.51 1147.77 344.111C1136.54 332.346 1117.72 325.132 1109.71 322.995M1123.76 426.687C1112.5 424.331 1101.07 415.018 1093.99 401.801M1109.71 322.995C1108.58 322.674 1107.47 322.361 1106.39 322.056M1109.71 322.995C1103.34 329.547 1098.49 336.214 1094.93 342.847M1106.39 322.056C1101.83 324.128 1091.98 328.651 1088.28 328.651H1084.95C1080.19 326.102 1078.38 322.029 1075.72 313.023M1106.39 322.056C1092.7 318.192 1082.98 315.48 1075.72 313.023M1075.72 313.023C1075.21 312.852 1074.72 312.683 1074.24 312.514M1065.37 311.683L1074.24 312.514M1065.37 311.683L1075.72 336.569C1076.33 337.826 1078.3 340.491 1081.26 341.094C1084.71 341.22 1091.75 341.547 1092.34 341.848C1092.94 342.15 1094.32 342.64 1094.93 342.847M1065.37 311.683C1043.32 294.967 1002.55 311.683 1021.39 371.259C1024.84 382.445 1036.69 410.7 1056.5 434.229M1074.24 312.514C1064.14 308.979 1059.04 305.854 1054.28 300.372L1052.8 298.494M1094.93 342.847C1088.41 354.995 1086.24 367.032 1087.07 378.046M1178.08 297.355C1178.2 297.858 1177.41 299.165 1173.27 300.372C1168.1 301.88 1163.3 299.994 1160.34 299.617C1157.97 299.316 1152.7 296.978 1150.36 295.847C1149.25 295.093 1145.56 293.886 1139.64 295.093C1132.25 296.601 1129.3 300.749 1124.86 300.749C1121.32 300.749 1115.75 298.361 1113.41 297.355C1112.18 296.978 1109.05 296.299 1106.39 296.601C1103.06 296.978 1096.41 301.503 1093.45 302.634C1091.09 303.539 1086.8 303.011 1084.95 302.634C1070.76 293.283 1065.98 292.705 1065.37 293.584C1056.48 298.529 1055.25 298.27 1052.8 298.494M1052.8 298.494C1051.89 298.578 1050.81 298.729 1049.11 299.24C1048.63 292.509 1049.72 279.934 1054.8 265.305M1087.07 378.046L1077.93 371.259C1077.43 378.046 1079.94 393.657 1093.99 401.801M1087.07 378.046C1087.72 386.753 1090.25 394.822 1093.99 401.801M1137.43 417.261C1133.98 416.255 1128.12 409.946 1132.25 392.752C1135.09 395.643 1141.34 403.159 1143.71 410.097M1099.37 386.719C1100.19 386.467 1103.78 387.322 1111.56 392.752M1103.8 361.833L1118.58 372.39M1107.5 344.111C1112.55 346.75 1123.98 354.367 1129.3 363.718M1160.34 262.665V269.829M1160.34 262.665L1159.23 265.305M1160.34 262.665L1161.08 263.985M1160.34 269.829L1159.23 267.944M1160.34 269.829L1161.82 267.944M1159.23 267.944V265.305M1159.23 267.944H1161.82M1159.23 265.305H1161.82M1161.82 265.305V267.944M1161.82 265.305L1161.08 263.985M1070.54 270.207C1070.54 271.212 1072.83 273.298 1082 273.6M1102.32 284.535C1102.32 285.138 1102.32 285.038 1102.32 284.912M1113.04 286.043V285.666M1056.5 434.229C1054.65 440.136 1056.8 453.76 1080.15 461C1074.62 436.265 1062.08 432.846 1056.5 434.229ZM1230.92 326.778C1252.72 314.457 1302.09 295.847 1325.15 319.979C1328.85 336.569 1339.41 342.527 1295.96 410.097M1295.96 410.097C1297.81 418.015 1296.55 434.606 1276.74 437.622C1282.95 410.775 1292.14 408.086 1295.96 410.097ZM1238.31 334.678C1243.11 335.057 1250.43 342.753 1241.27 370.505C1232.69 357.232 1235.72 341.346 1238.31 335.061M1161.08 263.985L1161 268L1159.5 267L1160 266V265.5M1056.5 421.031C1056.5 417.261 1062.26 411.228 1085.32 417.261C1078.39 425.707 1063.22 423.294 1056.5 421.031ZM1040.24 390.489C1042.95 387.222 1052.43 381.892 1068.69 386.719C1054.12 398.181 1043.65 394.009 1040.24 390.489ZM1029.89 357.308C1036.3 353.914 1051.47 350.068 1060.93 361.833C1042.9 367.866 1032.73 361.33 1029.89 357.308ZM1042.09 317.339C1045.17 317.591 1051.62 318.244 1052.8 318.848C1054.28 319.602 1058.72 329.405 1062.04 341.094C1045.19 333.855 1041.72 322.241 1042.09 317.339ZM1267.5 395.391C1274.77 388.981 1291.82 377.066 1301.87 380.686C1300.27 385.588 1291.15 395.391 1267.5 395.391ZM1288.2 355.8C1290.41 346.516 1298.17 328.239 1311.48 329.405C1312.36 339.058 1296.33 351.024 1288.2 355.8ZM1268.98 331.668C1273.05 336.57 1277.78 350.295 1264.18 365.98C1259.15 344.425 1265.29 334.124 1268.98 331.668Z" stroke="black"/>
<defs>
<filter id="filter0_dd" x="110.711" y="192.641" width="624.367" height="243.848" filterUnits="userSpaceOnUse" color-interpolation-filters="sRGB">
<feFlood flood-opacity="0" result="BackgroundImageFix"/>
<feColorMatrix in="SourceAlpha" type="matrix" values="0 0 0 0 0 0 0 0 0 0 0 0 0 0 0 0 0 0 127 0"/>
<feOffset dx="5" dy="-7"/>
<feGaussianBlur stdDeviation="2"/>
<feColorMatrix type="matrix" values="0 0 0 0 0 0 0 0 0 0.760784 0 0 0 0 1 0 0 0 0.4 0"/>
<feBlend mode="normal" in2="BackgroundImageFix" result="effect1_dropShadow"/>
<feColorMatrix in="SourceAlpha" type="matrix" values="0 0 0 0 0 0 0 0 0 0 0 0 0 0 0 0 0 0 127 0"/>
<feOffset dx="-5" dy="10"/>
<feGaussianBlur stdDeviation="2"/>
<feColorMatrix type="matrix" values="0 0 0 0 1 0 0 0 0 0 0 0 0 0 0 0 0 0 0.4 0"/>
<feBlend mode="normal" in2="effect1_dropShadow" result="effect2_dropShadow"/>
<feBlend mode="normal" in="SourceGraphic" in2="effect2_dropShadow" result="shape"/>
</filter>
</defs>
</svg>
